<svg width="56" height="50" viewBox="0 0 56 50" fill="none" xmlns="http://www.w3.org/2000/svg">
    <path d="M30.2684 7.77379L30.2684 7.77375C31.555 6.04431 33.9022 3.90352 36.8934 2.74134L36.2105 0.983542L36.8935 2.74133C39.7838 1.6183 43.3264 1.37693 47.3613 3.41074L47.3613 3.41075C52.3961 5.94846 54.2494 10.2363 53.9272 15.1085C53.5928 20.1646 50.8646 25.8022 46.6015 30.0999L46.6015 30.0999C41.9939 34.7452 34.1254 42.6688 28.4493 47.0204L28.4492 47.0205C28.1899 47.2193 27.8306 47.2306 27.5315 46.9872C22.2678 42.704 13.7086 34.5973 9.24751 30.0999L9.24748 30.0999C4.98428 25.8022 2.25618 20.1646 1.92183 15.1085L1.92183 15.1085C1.59961 10.2363 3.45299 5.94845 8.48756 3.41074L7.64624 1.74164L8.48756 3.41074C12.5225 1.37693 16.0652 1.6183 18.9555 2.74133L18.9555 2.74134C21.9467 3.9035 24.2939 6.04426 25.5808 7.77379C25.5808 7.77381 25.5808 7.77383 25.5808 7.77385L26.4108 8.88947L27.9246 10.9243L29.4384 8.88947L30.2684 7.77379Z" stroke="#4B6587" stroke-width="3.77358"/>
</svg>
